<svg width="156" height="60" viewBox="0 0 156 60" fill="none" xmlns="http://www.w3.org/2000/svg">
<rect width="155.25" height="60" rx="2" fill="#383838"/>
<path d="M57.1484 20.7041V27.75H59.5654C61.6602 27.75 62.8906 26.4463 62.8906 24.2246C62.8906 22.0078 61.6553 20.7041 59.5654 20.7041H57.1484ZM58.0273 21.4951H59.5068C61.0693 21.4951 61.9922 22.5107 61.9922 24.2344C61.9922 25.9531 61.0791 26.959 59.5068 26.959H58.0273V21.4951ZM66.4697 27.8428C67.9688 27.8428 68.8965 26.8076 68.8965 25.1182C68.8965 23.4238 67.9688 22.3936 66.4697 22.3936C64.9707 22.3936 64.043 23.4238 64.043 25.1182C64.043 26.8076 64.9707 27.8428 66.4697 27.8428ZM66.4697 27.0859C65.4736 27.0859 64.9121 26.3633 64.9121 25.1182C64.9121 23.8682 65.4736 23.1504 66.4697 23.1504C67.4658 23.1504 68.0273 23.8682 68.0273 25.1182C68.0273 26.3633 67.4658 27.0859 66.4697 27.0859ZM76.6406 22.4863H75.7959L74.7607 26.6953H74.6826L73.5059 22.4863H72.7002L71.5234 26.6953H71.4453L70.4102 22.4863H69.5605L71.0352 27.75H71.8848L73.0566 23.6777H73.1348L74.3115 27.75H75.166L76.6406 22.4863ZM77.7637 27.75H78.6035V24.6348C78.6035 23.7119 79.1455 23.1504 79.9854 23.1504C80.8252 23.1504 81.2256 23.5996 81.2256 24.5469V27.75H82.0654V24.3418C82.0654 23.0918 81.4062 22.3936 80.2246 22.3936C79.4189 22.3936 78.9062 22.7354 78.6426 23.3164H78.5645V22.4863H77.7637V27.75ZM83.6523 27.75H84.4922V20.3965H83.6523V27.75ZM88.2861 27.8428C89.7852 27.8428 90.7129 26.8076 90.7129 25.1182C90.7129 23.4238 89.7852 22.3936 88.2861 22.3936C86.7871 22.3936 85.8594 23.4238 85.8594 25.1182C85.8594 26.8076 86.7871 27.8428 88.2861 27.8428ZM88.2861 27.0859C87.29 27.0859 86.7285 26.3633 86.7285 25.1182C86.7285 23.8682 87.29 23.1504 88.2861 23.1504C89.2822 23.1504 89.8438 23.8682 89.8438 25.1182C89.8438 26.3633 89.2822 27.0859 88.2861 27.0859ZM93.6523 27.1055C93.042 27.1055 92.5879 26.793 92.5879 26.2559C92.5879 25.7285 92.9395 25.4502 93.7402 25.3965L95.1562 25.3037V25.7871C95.1562 26.5391 94.5166 27.1055 93.6523 27.1055ZM93.4961 27.8428C94.1992 27.8428 94.7754 27.5352 95.1172 26.9736H95.1953V27.75H95.9961V24.1465C95.9961 23.0527 95.2783 22.3936 93.9941 22.3936C92.8711 22.3936 92.041 22.9502 91.9287 23.7949H92.7783C92.8955 23.3799 93.335 23.1406 93.9648 23.1406C94.751 23.1406 95.1562 23.4971 95.1562 24.1465V24.625L93.6377 24.7178C92.4121 24.791 91.7188 25.333 91.7188 26.2754C91.7188 27.2373 92.4756 27.8428 93.4961 27.8428ZM99.4971 27.8428C100.225 27.8428 100.85 27.4961 101.182 26.9102H101.26V27.75H102.061V20.3965H101.221V23.3164H101.147C100.85 22.7402 100.229 22.3936 99.4971 22.3936C98.1592 22.3936 97.2852 23.4678 97.2852 25.1182C97.2852 26.7734 98.1494 27.8428 99.4971 27.8428ZM99.6924 23.1504C100.645 23.1504 101.24 23.9121 101.24 25.1182C101.24 26.334 100.649 27.0859 99.6924 27.0859C98.7305 27.0859 98.1543 26.3486 98.1543 25.1182C98.1543 23.8926 98.7354 23.1504 99.6924 23.1504ZM108.677 27.8428C110.176 27.8428 111.104 26.8076 111.104 25.1182C111.104 23.4238 110.176 22.3936 108.677 22.3936C107.178 22.3936 106.25 23.4238 106.25 25.1182C106.25 26.8076 107.178 27.8428 108.677 27.8428ZM108.677 27.0859C107.681 27.0859 107.119 26.3633 107.119 25.1182C107.119 23.8682 107.681 23.1504 108.677 23.1504C109.673 23.1504 110.234 23.8682 110.234 25.1182C110.234 26.3633 109.673 27.0859 108.677 27.0859ZM112.422 27.75H113.262V24.6348C113.262 23.7119 113.804 23.1504 114.644 23.1504C115.483 23.1504 115.884 23.5996 115.884 24.5469V27.75H116.724V24.3418C116.724 23.0918 116.064 22.3936 114.883 22.3936C114.077 22.3936 113.564 22.7354 113.301 23.3164H113.223V22.4863H112.422V27.75ZM121.436 21.124V22.4863H120.586V23.1895H121.436V26.3828C121.436 27.3887 121.87 27.7891 122.954 27.7891C123.12 27.7891 123.281 27.7695 123.447 27.7402V27.0322C123.291 27.0469 123.208 27.0518 123.057 27.0518C122.51 27.0518 122.275 26.7881 122.275 26.168V23.1895H123.447V22.4863H122.275V21.124H121.436ZM124.766 27.75H125.605V24.6348C125.605 23.7461 126.123 23.1504 127.065 23.1504C127.861 23.1504 128.281 23.6143 128.281 24.5469V27.75H129.121V24.3418C129.121 23.1064 128.418 22.3936 127.305 22.3936C126.499 22.3936 125.947 22.7354 125.684 23.3164H125.605V20.3965H124.766V27.75ZM132.754 23.1357C133.589 23.1357 134.146 23.751 134.165 24.6836H131.265C131.328 23.751 131.914 23.1357 132.754 23.1357ZM134.141 26.3877C133.921 26.8516 133.462 27.1006 132.783 27.1006C131.89 27.1006 131.309 26.4414 131.265 25.4014V25.3623H135.049V25.04C135.049 23.4043 134.185 22.3936 132.764 22.3936C131.318 22.3936 130.391 23.4678 130.391 25.123C130.391 26.7881 131.304 27.8428 132.764 27.8428C133.916 27.8428 134.736 27.2861 134.98 26.3877H134.141Z" fill="white"/>
<path d="M63.6221 42H65.249L61.6875 32.1357H60.04L56.4785 42H58.0508L58.96 39.3818H62.7197L63.6221 42ZM60.7852 33.9268H60.9014L62.3301 38.0967H59.3496L60.7852 33.9268ZM70.6631 34.4326C69.6514 34.4326 68.7764 34.9385 68.3252 35.7861H68.2158V34.5557H66.8008V44.4746H68.2705V40.8721H68.3867C68.7764 41.6582 69.6172 42.123 70.6768 42.123C72.5566 42.123 73.7529 40.6396 73.7529 38.2744C73.7529 35.9092 72.5566 34.4326 70.6631 34.4326ZM70.2461 40.8037C69.0156 40.8037 68.2432 39.833 68.2432 38.2812C68.2432 36.7227 69.0156 35.752 70.2529 35.752C71.4971 35.752 72.2422 36.7021 72.2422 38.2744C72.2422 39.8535 71.4971 40.8037 70.2461 40.8037ZM79.3857 34.4326C78.374 34.4326 77.499 34.9385 77.0479 35.7861H76.9385V34.5557H75.5234V44.4746H76.9932V40.8721H77.1094C77.499 41.6582 78.3398 42.123 79.3994 42.123C81.2793 42.123 82.4756 40.6396 82.4756 38.2744C82.4756 35.9092 81.2793 34.4326 79.3857 34.4326ZM78.9688 40.8037C77.7383 40.8037 76.9658 39.833 76.9658 38.2812C76.9658 36.7227 77.7383 35.752 78.9756 35.752C80.2197 35.752 80.9648 36.7021 80.9648 38.2744C80.9648 39.8535 80.2197 40.8037 78.9688 40.8037ZM87.7803 39.3477C87.8896 41.1113 89.3594 42.2393 91.5469 42.2393C93.8848 42.2393 95.3477 41.0566 95.3477 39.1699C95.3477 37.6865 94.5137 36.8662 92.4902 36.3945L91.4033 36.1279C90.1182 35.8271 89.5986 35.4238 89.5986 34.7197C89.5986 33.8311 90.4053 33.25 91.6152 33.25C92.7637 33.25 93.5566 33.8174 93.7002 34.7266H95.1904C95.1016 33.0654 93.6387 31.8965 91.6357 31.8965C89.4824 31.8965 88.0469 33.0654 88.0469 34.8223C88.0469 36.2715 88.8604 37.1328 90.6445 37.5498L91.916 37.8574C93.2217 38.165 93.7959 38.6162 93.7959 39.3682C93.7959 40.2432 92.8936 40.8789 91.6631 40.8789C90.3438 40.8789 89.4277 40.2842 89.2979 39.3477H87.7803ZM97.7129 32.7031V34.5898H96.5303V35.8271H97.7129V40.0312C97.7129 41.4668 98.3623 42.041 99.9961 42.041C100.283 42.041 100.557 42.0068 100.796 41.9658V40.7422C100.591 40.7627 100.461 40.7764 100.235 40.7764C99.5039 40.7764 99.1826 40.4346 99.1826 39.6553V35.8271H100.796V34.5898H99.1826V32.7031H97.7129ZM105.588 42.1436C107.762 42.1436 109.095 40.6875 109.095 38.2744C109.095 35.875 107.755 34.4121 105.588 34.4121C103.414 34.4121 102.074 35.875 102.074 38.2744C102.074 40.6875 103.407 42.1436 105.588 42.1436ZM105.588 40.8379C104.31 40.8379 103.592 39.9014 103.592 38.2744C103.592 36.6611 104.31 35.7178 105.588 35.7178C106.859 35.7178 107.584 36.6611 107.584 38.2744C107.584 39.8945 106.859 40.8379 105.588 40.8379ZM110.865 42H112.335V37.6045C112.335 36.5586 113.121 35.8545 114.235 35.8545C114.495 35.8545 114.933 35.9023 115.056 35.9434V34.4941C114.898 34.4531 114.618 34.4326 114.399 34.4326C113.429 34.4326 112.602 34.9658 112.39 35.6973H112.28V34.5557H110.865V42ZM119.335 35.6631C120.422 35.6631 121.133 36.4219 121.167 37.5908H117.407C117.489 36.4287 118.248 35.6631 119.335 35.6631ZM121.16 39.9902C120.887 40.5713 120.278 40.8926 119.39 40.8926C118.214 40.8926 117.455 40.0654 117.407 38.7598V38.6777H122.664V38.165C122.664 35.8271 121.413 34.4121 119.342 34.4121C117.243 34.4121 115.91 35.9229 115.91 38.3018C115.91 40.6807 117.216 42.1436 119.349 42.1436C121.051 42.1436 122.254 41.3164 122.575 39.9902H121.16Z" fill="white"/>
<path d="M39.8965 30.6943C39.8848 28.6963 40.79 27.1904 42.6182 26.0801C41.5957 24.6152 40.0488 23.8096 38.0098 23.6543C36.0791 23.502 33.9668 24.7793 33.1934 24.7793C32.376 24.7793 30.5068 23.707 29.0361 23.707C26.001 23.7539 22.7754 26.127 22.7754 30.9551C22.7754 32.3818 23.0361 33.8555 23.5576 35.373C24.2549 37.3711 26.7686 42.2666 29.3906 42.1875C30.7617 42.1553 31.7314 41.2148 33.5156 41.2148C35.2471 41.2148 36.1436 42.1875 37.6729 42.1875C40.3184 42.1494 42.5918 37.6992 43.2539 35.6953C39.7061 34.0225 39.8965 30.7969 39.8965 30.6943ZM36.8174 21.7588C38.3027 19.9951 38.168 18.3896 38.124 17.8125C36.8115 17.8887 35.2939 18.7061 34.4297 19.7109C33.4775 20.7891 32.918 22.1221 33.0381 23.625C34.4561 23.7334 35.751 23.0039 36.8174 21.7588Z" fill="white"/>
</svg>
