<svg width="156" height="60" viewBox="0 0 156 60" fill="none" xmlns="http://www.w3.org/2000/svg">
<rect width="155.25" height="60" rx="2" fill="#383838"/>
<path opacity="0.8" d="M36.195 31.1188L39.4113 34.3113L44.1425 31.5788C44.7751 31.2626 45.1801 30.6213 45.1951 29.9138C45.1826 29.578 45.0785 29.252 44.8941 28.9711C44.7097 28.6902 44.452 28.4651 44.1488 28.3201C43.7551 28.1076 40.3863 26.1526 39.1201 25.4163L39.1175 25.4138L23.7988 16.5701C23.4912 16.3752 23.1373 16.2655 22.7733 16.2523C22.4094 16.2391 22.0485 16.3229 21.7275 16.4951C21.665 16.5376 21.6063 16.5838 21.55 16.6338L36.195 31.1188Z" fill="white"/>
<path d="M44.1487 28.32C43.7812 28.1212 40.8275 26.4075 39.41 25.585L36.1637 28.8062L21.4812 43.3725C21.5412 43.4275 21.6062 43.4775 21.6725 43.5225C21.935 43.6725 22.23 43.75 22.5312 43.7487C22.8962 43.7437 23.2537 43.6437 23.5687 43.4587C24.055 43.1762 39.1175 34.4812 39.1175 34.4812L44.1425 31.5787C44.775 31.2625 45.18 30.6212 45.195 29.9137C45.1825 29.5779 45.0784 29.2519 44.894 28.971C44.7096 28.6901 44.4519 28.4649 44.1487 28.32Z" fill="white"/>
<path opacity="0.9" d="M35.0125 29.95L21.55 16.6362C21.3095 16.8184 21.1162 17.0556 20.9864 17.3279C20.8565 17.6002 20.7939 17.8997 20.8037 18.2012V41.9325C20.7875 42.4975 21.05 43.0212 21.4825 43.37L35.0125 29.95Z" fill="white"/>
<path d="M44.1487 28.32C43.2187 27.82 39.9362 25.89 39.41 25.585L36.1637 28.8062L35.0125 29.9487L36.195 31.1187L39.4112 34.3112L44.1425 31.5787C44.775 31.2625 45.18 30.6212 45.195 29.9137C45.1825 29.5779 45.0784 29.2519 44.894 28.971C44.7096 28.6901 44.4519 28.4649 44.1487 28.32Z" fill="white"/>
<path d="M61.5615 25.0254V24.166H58.7051V24.9375H60.6875V25.1084C60.6875 26.2998 59.833 27.1055 58.5732 27.1055C57.1572 27.1055 56.2783 26.002 56.2783 24.2246C56.2783 22.4717 57.1719 21.3486 58.5684 21.3486C59.6133 21.3486 60.3213 21.8516 60.624 22.8037H61.5176C61.2637 21.4072 60.1309 20.5381 58.5684 20.5381C56.6396 20.5381 55.375 21.998 55.375 24.2246C55.375 26.4805 56.6201 27.916 58.5684 27.916C60.3701 27.916 61.5615 26.7637 61.5615 25.0254ZM65.1113 23.1357C65.9463 23.1357 66.5029 23.751 66.5225 24.6836H63.6221C63.6855 23.751 64.2715 23.1357 65.1113 23.1357ZM66.498 26.3877C66.2783 26.8516 65.8193 27.1006 65.1406 27.1006C64.2471 27.1006 63.666 26.4414 63.6221 25.4014V25.3623H67.4062V25.04C67.4062 23.4043 66.542 22.3936 65.1211 22.3936C63.6758 22.3936 62.748 23.4678 62.748 25.123C62.748 26.7881 63.6611 27.8428 65.1211 27.8428C66.2734 27.8428 67.0938 27.2861 67.3379 26.3877H66.498ZM69.0762 21.124V22.4863H68.2266V23.1895H69.0762V26.3828C69.0762 27.3887 69.5107 27.7891 70.5947 27.7891C70.7607 27.7891 70.9219 27.7695 71.0879 27.7402V27.0322C70.9316 27.0469 70.8486 27.0518 70.6973 27.0518C70.1504 27.0518 69.916 26.7881 69.916 26.168V23.1895H71.0879V22.4863H69.916V21.124H69.0762ZM75.1992 27.75H76.0391V22.4863H75.1992V27.75ZM75.6191 21.4707C75.9414 21.4707 76.2051 21.207 76.2051 20.8848C76.2051 20.5625 75.9414 20.2988 75.6191 20.2988C75.2969 20.2988 75.0332 20.5625 75.0332 20.8848C75.0332 21.207 75.2969 21.4707 75.6191 21.4707ZM77.9922 21.124V22.4863H77.1426V23.1895H77.9922V26.3828C77.9922 27.3887 78.4268 27.7891 79.5107 27.7891C79.6768 27.7891 79.8379 27.7695 80.0039 27.7402V27.0322C79.8477 27.0469 79.7646 27.0518 79.6133 27.0518C79.0664 27.0518 78.832 26.7881 78.832 26.168V23.1895H80.0039V22.4863H78.832V21.124H77.9922ZM86.2588 27.8428C87.7578 27.8428 88.6855 26.8076 88.6855 25.1182C88.6855 23.4238 87.7578 22.3936 86.2588 22.3936C84.7598 22.3936 83.832 23.4238 83.832 25.1182C83.832 26.8076 84.7598 27.8428 86.2588 27.8428ZM86.2588 27.0859C85.2627 27.0859 84.7012 26.3633 84.7012 25.1182C84.7012 23.8682 85.2627 23.1504 86.2588 23.1504C87.2549 23.1504 87.8164 23.8682 87.8164 25.1182C87.8164 26.3633 87.2549 27.0859 86.2588 27.0859ZM90.0039 27.75H90.8438V24.6348C90.8438 23.7119 91.3857 23.1504 92.2256 23.1504C93.0654 23.1504 93.4658 23.5996 93.4658 24.5469V27.75H94.3057V24.3418C94.3057 23.0918 93.6465 22.3936 92.4648 22.3936C91.6592 22.3936 91.1465 22.7354 90.8828 23.3164H90.8047V22.4863H90.0039V27.75Z" fill="white"/>
<path d="M64.4023 38.5967V37.3662H60.3555V38.6514H62.8984V38.8633C62.8848 40.3262 61.7773 41.3105 60.1641 41.3105C58.3115 41.3105 57.1494 39.875 57.1494 37.5508C57.1494 35.2676 58.3047 33.8252 60.1299 33.8252C61.4766 33.8252 62.4131 34.4746 62.7959 35.6641H64.334C63.999 33.668 62.3721 32.3965 60.1299 32.3965C57.3682 32.3965 55.584 34.4199 55.584 37.5645C55.584 40.75 57.3477 42.7393 60.1436 42.7393C62.7275 42.7393 64.4023 41.1191 64.4023 38.5967ZM69.4883 42.6436C71.6621 42.6436 72.9951 41.1875 72.9951 38.7744C72.9951 36.375 71.6553 34.9121 69.4883 34.9121C67.3145 34.9121 65.9746 36.375 65.9746 38.7744C65.9746 41.1875 67.3076 42.6436 69.4883 42.6436ZM69.4883 41.3379C68.21 41.3379 67.4922 40.4014 67.4922 38.7744C67.4922 37.1611 68.21 36.2178 69.4883 36.2178C70.7598 36.2178 71.4844 37.1611 71.4844 38.7744C71.4844 40.3945 70.7598 41.3379 69.4883 41.3379ZM77.9102 42.6436C80.084 42.6436 81.417 41.1875 81.417 38.7744C81.417 36.375 80.0771 34.9121 77.9102 34.9121C75.7363 34.9121 74.3965 36.375 74.3965 38.7744C74.3965 41.1875 75.7295 42.6436 77.9102 42.6436ZM77.9102 41.3379C76.6318 41.3379 75.9141 40.4014 75.9141 38.7744C75.9141 37.1611 76.6318 36.2178 77.9102 36.2178C79.1816 36.2178 79.9062 37.1611 79.9062 38.7744C79.9062 40.3945 79.1816 41.3379 77.9102 41.3379ZM86.3047 41.1191C85.04 41.1191 84.3291 40.1689 84.3291 38.6855C84.3291 37.2021 85.04 36.252 86.3047 36.252C87.5557 36.252 88.3213 37.2021 88.3213 38.6855C88.3213 40.1758 87.5625 41.1191 86.3047 41.1191ZM86.3252 45.3438C88.4307 45.3438 89.7637 44.2637 89.7637 42.5615V35.0557H88.3555V36.2451H88.2393C87.8223 35.4385 86.9268 34.9326 85.9014 34.9326C84.001 34.9326 82.8115 36.4229 82.8115 38.6924C82.8115 40.9209 83.9873 42.3906 85.8877 42.3906C86.9131 42.3906 87.7334 41.9463 88.1846 41.1396H88.2939V42.5684C88.2939 43.5527 87.5693 44.1338 86.3457 44.1338C85.3545 44.1338 84.7324 43.7852 84.6094 43.2451H83.1055C83.2627 44.5098 84.4658 45.3438 86.3252 45.3438ZM91.9648 42.5H93.4346V32.1504H91.9648V42.5ZM98.6982 36.1631C99.7852 36.1631 100.496 36.9219 100.53 38.0908H96.7705C96.8525 36.9287 97.6113 36.1631 98.6982 36.1631ZM100.523 40.4902C100.25 41.0713 99.6416 41.3926 98.7529 41.3926C97.5771 41.3926 96.8184 40.5654 96.7705 39.2598V39.1777H102.027V38.665C102.027 36.3271 100.776 34.9121 98.7051 34.9121C96.6064 34.9121 95.2734 36.4229 95.2734 38.8018C95.2734 41.1807 96.5791 42.6436 98.7119 42.6436C100.414 42.6436 101.617 41.8164 101.938 40.4902H100.523ZM107.79 32.6357V42.5H109.321V39.1777H111.604C113.539 39.1777 114.906 37.8516 114.906 35.9238C114.906 33.9688 113.58 32.6357 111.652 32.6357H107.79ZM109.321 33.9893H111.249C112.596 33.9893 113.341 34.6729 113.341 35.9238C113.341 37.1475 112.568 37.8311 111.249 37.8311H109.321V33.9893ZM116.779 42.5H118.249V32.1504H116.779V42.5ZM122.891 41.3857C122.091 41.3857 121.51 40.9961 121.51 40.3262C121.51 39.6699 121.975 39.3213 123 39.2529L124.818 39.1367V39.7588C124.818 40.6816 123.998 41.3857 122.891 41.3857ZM122.515 42.623C123.492 42.623 124.306 42.1992 124.75 41.4541H124.866V42.5H126.281V37.4141C126.281 35.8418 125.229 34.9121 123.362 34.9121C121.674 34.9121 120.471 35.7324 120.32 37.0107H121.742C121.906 36.4844 122.474 36.1836 123.294 36.1836C124.299 36.1836 124.818 36.6279 124.818 37.4141V38.0566L122.802 38.1729C121.031 38.2822 120.033 39.0547 120.033 40.3945C120.033 41.7549 121.079 42.623 122.515 42.623ZM128.865 45.2002C130.383 45.2002 131.087 44.6191 131.723 42.8076L134.498 35.0557H132.939L131.08 40.9688H130.964L129.098 35.0557H127.498L130.191 42.5273L130.082 42.8896C129.829 43.6416 129.433 43.9287 128.735 43.9287C128.599 43.9287 128.373 43.9219 128.257 43.9014V45.166C128.394 45.1865 128.742 45.2002 128.865 45.2002Z" fill="white"/>
</svg>
