<?xml version="1.0" encoding="utf-8"?>
<!-- Generator: Adobe Illustrator 25.0.0, SVG Export Plug-In . SVG Version: 6.00 Build 0)  -->
<svg version="1.1" id="Phone_1_" xmlns="http://www.w3.org/2000/svg" xmlns:xlink="http://www.w3.org/1999/xlink" x="0px" y="0px"
	 viewBox="0 0 567 730" style="enable-background:new 0 0 567 730;" xml:space="preserve">
<style type="text/css">
	.st0{fill:#FFFFFF;stroke:#F1F2FF;stroke-width:4;}
	.st1{fill:#222222;filter:url(#Adobe_OpacityMaskFilter);}
	.st2{mask:url(#mask0_1_);}
	.st3{fill:none;}
	.st4{fill:#FFFFFF;}
	.st5{fill-rule:evenodd;clip-rule:evenodd;fill:#FFFFFF;}
	.st6{fill:#EAEAEA;}
	.st7{fill:#C4C4C4;}
	.st8{fill:url(#SVGID_1_);}
	.st9{fill:#EAEAEA;filter:url(#Adobe_OpacityMaskFilter_1_);}
	.st10{mask:url(#mask1_1_);}
	.st11{fill-rule:evenodd;clip-rule:evenodd;fill:#C4C4C4;}
	.st12{fill:#F1682C;}
	.st13{fill:#0A2E65;}
	.st14{opacity:0.8;fill:#0A2E65;enable-background:new    ;}
	.st15{fill:none;stroke:#F1F1F1;}
</style>
<g id="Phone">
	<path class="st0" d="M56.4,41h256.2c15.5,0,28,12.5,28,28v581.9c0,15.5-12.5,28-28,28H56.4c-15.5,0-28-12.5-28-28V69
		C28.4,53.5,41,41,56.4,41z"/>
	<defs>
		<filter id="Adobe_OpacityMaskFilter" filterUnits="userSpaceOnUse" x="46.5" y="58" width="277.4" height="604.1">
			<feColorMatrix  type="matrix" values="1 0 0 0 0  0 1 0 0 0  0 0 1 0 0  0 0 0 1 0"/>
		</filter>
	</defs>
	<mask maskUnits="userSpaceOnUse" x="46.5" y="58" width="277.4" height="604.1" id="mask0_1_">
		<path class="st1" d="M66,58.1h237.5c11,0,20,9,20,20V642c0,11-9,20-20,20H66c-11,0-20-9-20-20V78.1C46,67.1,54.9,58.1,66,58.1z"/>
	</mask>
	<g class="st2">
		<rect x="46.5" y="58" class="st3" width="277.4" height="604.1"/>
	</g>
	<g>
		<path class="st4" d="M24,127.6c0-1.3,1.1-2.4,2.4-2.4v26.1c-1.3,0-2.4-1.1-2.4-2.4V127.6z"/>
	</g>
	<g>
		<path class="st4" d="M24,173.9c0-1.3,1.1-2.4,2.4-2.4v46.9c-1.3,0-2.4-1.1-2.4-2.4V173.9z"/>
	</g>
	<g>
		<path class="st4" d="M24,232.7c0-1.3,1.1-2.4,2.4-2.4v46.9c-1.3,0-2.4-1.1-2.4-2.4V232.7z"/>
	</g>
	<g>
		<path class="st4" d="M345,189.5c0-1.3-1.1-2.4-2.4-2.4v74.6c1.3,0,2.4-1.1,2.4-2.4V189.5z"/>
	</g>
	<path class="st5" d="M192,58.1h-88.8c2.5,0.2,3.9,1.9,4.1,4.1c0,10.3,8.4,18.7,18.7,18.7h63.2h54.4c10.3,0,18.7-8.4,18.7-18.7
		c0.2-2.2,1.6-4,4.1-4.1H192z"/>
	<path class="st6" d="M167.7,62.2h33.6c1.6,0,2.9,1.3,2.9,2.9l0,0c0,1.6-1.3,2.9-2.9,2.9h-33.6c-1.6,0-2.9-1.3-2.9-2.9l0,0
		C164.8,63.5,166.1,62.2,167.7,62.2z"/>
	<ellipse class="st7" cx="218.1" cy="65.1" rx="4.5" ry="4.5"/>
	
		<radialGradient id="SVGID_1_" cx="-557.8965" cy="1079.3002" r="1" gradientTransform="matrix(1.1382 3.1371 3.1251 -1.1339 -2520.8811 3038.6724)" gradientUnits="userSpaceOnUse">
		<stop  offset="0" style="stop-color:#A792FE"/>
		<stop  offset="1" style="stop-color:#141023"/>
	</radialGradient>
	<ellipse class="st8" cx="218.1" cy="65.1" rx="2.8" ry="2.8"/>
	<defs>
		<filter id="Adobe_OpacityMaskFilter_1_" filterUnits="userSpaceOnUse" x="151.1" y="62.2" width="62.6" height="5.8">
			<feColorMatrix  type="matrix" values="1 0 0 0 0  0 1 0 0 0  0 0 1 0 0  0 0 0 1 0"/>
		</filter>
	</defs>
	<mask maskUnits="userSpaceOnUse" x="151.1" y="62.2" width="62.6" height="5.8" id="mask1_1_">
		<path class="st9" d="M167.7,62.2h33.6c1.6,0,2.9,1.3,2.9,2.9l0,0c0,1.6-1.3,2.9-2.9,2.9h-33.6c-1.6,0-2.9-1.3-2.9-2.9l0,0
			C164.8,63.5,166.1,62.2,167.7,62.2z"/>
	</mask>
	<g class="st10">
		<path class="st11" d="M151.8,62.2h-0.8V68h0v0h62.6v-1.2l0,0v-1.1l0,0v-1.2l0,0v-1.1l0,0v-1.2l0,0h-0.8h-1.3h-0.8h-1.3h-0.8h-1.3
			h-0.8h-1.3h-0.8h-1.3h-0.8h-1.3h-0.8h-1.3h-0.8h-1.3h-0.8h-1.3h-0.8H193h-0.8H191h-0.8h-1.3h-0.8h-1.3h-0.8h-1.3H184h-1.3H182
			h-1.3h-0.8h-1.3h-0.8h-1.3h-0.8h-1.3h-0.8h-1.3h-0.8h-1.3h-0.8h-1.3h-0.8h-1.3h-0.8h-1.3h-0.8h-1.3h-0.8h-1.3h-0.8H158h-0.8H156
			h-0.8h-1.3h-0.8L151.8,62.2L151.8,62.2z M212.9,63.4h-1.3v1.1h1.3V63.4z M212.9,65.7h-1.3v1.1h1.3V65.7z M210.8,65.7v1.1h-1.3
			v-1.1H210.8z M210.8,63.4v1.1h-1.3v-1.1H210.8z M208.7,63.4h-1.3v1.1h1.3V63.4z M208.7,65.7h-1.3v1.1h1.3V65.7z M206.7,65.7v1.1
			h-1.3v-1.1H206.7z M206.7,63.4v1.1h-1.3v-1.1H206.7z M204.6,63.4h-1.3v1.1h1.3V63.4z M204.6,65.7h-1.3v1.1h1.3V65.7z M202.6,65.7
			v1.1h-1.3v-1.1H202.6z M202.6,63.4v1.1h-1.3v-1.1H202.6z M200.5,63.4h-1.3v1.1h1.3V63.4z M200.5,65.7h-1.3v1.1h1.3V65.7z
			 M198.4,65.7v1.1h-1.3v-1.1H198.4z M198.4,63.4v1.1h-1.3v-1.1H198.4z M196.4,63.4h-1.3v1.1h1.3V63.4z M196.4,65.7h-1.3v1.1h1.3
			V65.7z M194.3,65.7v1.1H193v-1.1H194.3z M194.3,63.4v1.1H193v-1.1H194.3z M192.3,63.4H191v1.1h1.3V63.4z M192.3,65.7H191v1.1h1.3
			V65.7z M190.2,65.7v1.1h-1.3v-1.1H190.2z M190.2,63.4v1.1h-1.3v-1.1H190.2z M188.1,63.4h-1.3v1.1h1.3V63.4z M188.1,65.7h-1.3v1.1
			h1.3V65.7z M186.1,65.7v1.1h-1.3v-1.1H186.1z M186.1,63.4v1.1h-1.3v-1.1H186.1z M184,63.4h-1.3v1.1h1.3V63.4z M184,65.7h-1.3v1.1
			h1.3V65.7z M182,65.7v1.1h-1.3v-1.1H182z M182,63.4v1.1h-1.3v-1.1H182z M179.9,63.4h-1.3v1.1h1.3V63.4z M179.9,65.7h-1.3v1.1h1.3
			V65.7z M177.8,65.7v1.1h-1.3v-1.1H177.8z M177.8,63.4v1.1h-1.3v-1.1H177.8z M175.8,63.4h-1.3v1.1h1.3V63.4z M175.8,65.7h-1.3v1.1
			h1.3V65.7z M173.7,65.7v1.1h-1.3v-1.1H173.7z M173.7,63.4v1.1h-1.3v-1.1H173.7z M171.7,63.4h-1.3v1.1h1.3V63.4z M171.7,65.7h-1.3
			v1.1h1.3V65.7z M169.6,65.7v1.1h-1.3v-1.1H169.6z M169.6,63.4v1.1h-1.3v-1.1H169.6z M167.5,63.4h-1.3v1.1h1.3V63.4z M167.5,65.7
			h-1.3v1.1h1.3V65.7z M165.5,65.7v1.1h-1.3v-1.1H165.5z M165.5,63.4v1.1h-1.3v-1.1H165.5z M163.4,63.4h-1.3v1.1h1.3V63.4z
			 M163.4,65.7h-1.3v1.1h1.3V65.7z M161.4,65.7v1.1h-1.3v-1.1H161.4z M161.4,63.4v1.1h-1.3v-1.1H161.4z M159.3,63.4H158v1.1h1.3
			V63.4z M159.3,65.7H158v1.1h1.3V65.7z M157.2,65.7v1.1H156v-1.1H157.2z M157.2,63.4v1.1H156v-1.1H157.2z M155.2,63.4h-1.3v1.1h1.3
			V63.4z M155.2,65.7h-1.3v1.1h1.3V65.7z M153.1,65.7v1.1h-1.3v-1.1H153.1z M153.1,63.4v1.1h-1.3v-1.1H153.1z"/>
	</g>
</g>
<g id="First">
<animateTransform attributeName="transform"
                          attributeType="XML"
                          type="translate"
                          from="-100"
                          to="0"
                          dur="5s"
                          repeatCount="2"/>
	<g>
		<path class="st4" d="M122,291h377.6c1.7,0,3,1.3,3,3v80.8c0,1.7-1.3,3-3,3H122c-1.7,0-3-1.3-3-3V294C119,292.3,120.3,291,122,291z
			"/>
	</g>
	<path class="st12" d="M450.7,327.9c0-0.4,0-0.7,0.1-1c0.1-0.3,0.2-0.6,0.4-0.8c0.2-0.2,0.4-0.5,0.6-0.7c0.2-0.2,0.5-0.4,0.8-0.5
		c-0.5-0.3-0.9-0.7-1.2-1.1c-0.3-0.4-0.4-1-0.4-1.6c0-0.4,0.1-0.8,0.2-1.2c0.2-0.4,0.4-0.7,0.7-0.9c0.3-0.3,0.7-0.5,1.1-0.6
		c0.4-0.1,0.9-0.2,1.4-0.2c0.5,0,0.9,0.1,1.3,0.2c0.4,0.1,0.7,0.3,1,0.5c0.3,0.2,0.5,0.5,0.7,0.9c0.2,0.3,0.2,0.7,0.2,1.1
		c0,0.6-0.1,1.2-0.4,1.6c-0.3,0.4-0.7,0.8-1.2,1.2c0.6,0.4,1.1,0.8,1.4,1.2c0.3,0.4,0.5,1,0.5,1.7c0,0.5-0.1,0.9-0.3,1.3
		c-0.2,0.4-0.4,0.7-0.7,1c-0.3,0.3-0.7,0.5-1.2,0.7c-0.4,0.1-0.9,0.2-1.5,0.2c-0.5,0-1-0.1-1.5-0.2c-0.4-0.1-0.8-0.3-1.1-0.6
		c-0.3-0.3-0.5-0.6-0.7-0.9C450.8,328.8,450.7,328.3,450.7,327.9z M455.8,327.7c0-0.2-0.1-0.5-0.2-0.7c-0.1-0.2-0.3-0.4-0.5-0.5
		c-0.2-0.2-0.4-0.3-0.6-0.5c-0.2-0.1-0.5-0.3-0.7-0.4c-0.5,0.3-0.8,0.6-1,0.9c-0.2,0.3-0.3,0.7-0.3,1c0,0.4,0.1,0.8,0.4,1.1
		c0.3,0.3,0.7,0.4,1.2,0.4c0.5,0,0.9-0.1,1.2-0.4C455.7,328.5,455.8,328.2,455.8,327.7z M452.9,322.2c0,0.3,0,0.5,0.1,0.7
		c0.1,0.2,0.2,0.4,0.4,0.5c0.2,0.1,0.4,0.3,0.6,0.4c0.2,0.1,0.4,0.2,0.7,0.3c0.6-0.5,1-1.1,1-1.8c0-0.4-0.1-0.8-0.4-1
		c-0.3-0.2-0.6-0.4-0.9-0.4c-0.5,0-0.8,0.1-1,0.4C453,321.6,452.9,321.9,452.9,322.2z M459.6,322c0-0.5,0.1-0.9,0.2-1.2
		c0.1-0.3,0.3-0.6,0.6-0.8s0.5-0.4,0.9-0.5c0.4-0.1,0.7-0.2,1.1-0.2s0.8,0,1.1,0.1s0.6,0.3,0.9,0.5c0.3,0.2,0.5,0.5,0.6,0.8
		c0.1,0.3,0.2,0.8,0.2,1.3c0,0.5-0.1,0.9-0.2,1.3c-0.1,0.3-0.3,0.6-0.6,0.8c-0.2,0.2-0.5,0.4-0.9,0.5s-0.7,0.1-1.1,0.1
		s-0.8,0-1.1-0.1c-0.3-0.1-0.6-0.3-0.9-0.5c-0.2-0.2-0.4-0.5-0.6-0.8C459.7,322.9,459.6,322.5,459.6,322z M461.4,322
		c0,0.9,0.3,1.4,0.9,1.4c0.3,0,0.6-0.1,0.7-0.3c0.1-0.2,0.2-0.6,0.2-1.1c0-0.5-0.1-0.9-0.2-1.1c-0.1-0.2-0.4-0.3-0.7-0.3
		s-0.6,0.1-0.7,0.3C461.5,321.1,461.4,321.5,461.4,322z M466.1,327.9c0-0.5,0.1-0.9,0.2-1.2c0.1-0.3,0.3-0.6,0.6-0.8
		c0.2-0.2,0.5-0.4,0.9-0.5c0.4-0.1,0.7-0.2,1.1-0.2s0.8,0,1.1,0.1s0.6,0.3,0.9,0.5c0.3,0.2,0.5,0.5,0.6,0.8c0.1,0.3,0.2,0.8,0.2,1.3
		c0,0.5-0.1,0.9-0.2,1.3c-0.1,0.3-0.3,0.6-0.6,0.8c-0.2,0.2-0.5,0.4-0.9,0.5c-0.3,0.1-0.7,0.1-1.1,0.1s-0.8,0-1.1-0.1
		c-0.3-0.1-0.6-0.3-0.9-0.5c-0.2-0.2-0.4-0.5-0.6-0.8C466.2,328.8,466.1,328.4,466.1,327.9z M467.9,327.9c0,0.9,0.3,1.4,0.9,1.4
		c0.3,0,0.6-0.1,0.7-0.3c0.1-0.2,0.2-0.6,0.2-1.1c0-0.5-0.1-0.9-0.2-1.1c-0.1-0.2-0.4-0.3-0.7-0.3s-0.6,0.1-0.7,0.3
		C468,327,467.9,327.4,467.9,327.9z M469.6,319.2l1.2,1.1l-9.2,10.6l-1.2-1.1L469.6,319.2z"/>
	<path class="st13" d="M455.6,341.9c0.2-0.1,0.5-0.1,0.7-0.1s0.5,0,0.8,0c0.3,0,0.6,0,0.8,0.1c0.3,0.1,0.5,0.2,0.8,0.3
		c0.2,0.1,0.4,0.3,0.6,0.6c0.1,0.3,0.2,0.6,0.2,1c0,0.4-0.1,0.7-0.2,1c-0.1,0.3-0.3,0.5-0.5,0.6c-0.2,0.2-0.5,0.3-0.8,0.4
		s-0.6,0.1-0.9,0.1c0,0-0.1,0-0.2,0c-0.1,0-0.1,0-0.2,0c-0.1,0-0.1,0-0.2,0c-0.1,0-0.1,0-0.2,0v2.4h-0.7V341.9z M457.1,342.4
		c-0.2,0-0.3,0-0.4,0c-0.1,0-0.3,0-0.3,0v2.6c0,0,0.1,0,0.1,0c0.1,0,0.1,0,0.2,0c0.1,0,0.1,0,0.2,0c0.1,0,0.1,0,0.1,0
		c0.2,0,0.4,0,0.6-0.1c0.2,0,0.4-0.1,0.5-0.2s0.3-0.2,0.4-0.4c0.1-0.2,0.2-0.4,0.2-0.7c0-0.2,0-0.4-0.1-0.6
		c-0.1-0.2-0.2-0.3-0.4-0.4c-0.1-0.1-0.3-0.2-0.5-0.2C457.5,342.4,457.3,342.4,457.1,342.4z M459.1,347.7c0-0.2,0-0.3,0.1-0.4
		c0.1-0.1,0.2-0.1,0.4-0.1c0.2,0,0.3,0,0.4,0.1c0.1,0.1,0.1,0.2,0.1,0.4c0,0.2,0,0.3-0.1,0.4c-0.1,0.1-0.2,0.1-0.4,0.1
		c-0.2,0-0.3,0-0.4-0.1C459.2,348,459.1,347.8,459.1,347.7z M464.4,346.4h-2.3l-0.6,1.7h-0.7l2.4-6.4h0.3l2.4,6.4H465L464.4,346.4z
		 M462.3,345.7h1.9l-0.7-1.9l-0.2-1h0l-0.2,1L462.3,345.7z"/>
	<path class="st14" d="M145.8,342.7L145.8,342.7l-0.6-1.1h0.6V342.7z M142.9,340.9v-1.1h0l0.5,1.1H142.9z M148.2,340.9h-0.9v-3.8
		h-1.5v3.8h-0.9l-1.7-3.8h-1.9v3.8h-0.8v0.7h0.8v3.8h1.5v-3.8h0.9l1.7,3.8h1.9v-3.8h0.9V340.9z M151.4,341.8h1.1
		c0.9,0,1.5,0.5,1.5,1.2c0,0.7-0.6,1.2-1.5,1.2c-0.9,0-1.5-0.5-1.6-1.2h-1.7c0.1,1.6,1.4,2.6,3.3,2.6c1.9,0,3.3-1,3.3-2.5
		c0-1.1-0.7-1.9-1.9-2.1V341c0.9-0.2,1.6-0.9,1.6-1.9c0-1.2-1-2.3-2.9-2.3c-1.9,0-3.1,1-3.2,2.6h1.6c0.1-0.8,0.6-1.2,1.4-1.2
		c0.8,0,1.3,0.5,1.3,1.1c0,0.7-0.5,1.2-1.3,1.2h-1.1V341.8z M160.6,345.7c1.9,0,3.2-1.2,3.2-3c0-1.7-1.2-2.8-2.6-2.8
		c-0.9,0-1.5,0.3-1.9,0.8h-0.1l0.2-2.3h3.9V337H158l-0.5,5h1.6c0.3-0.5,0.8-0.8,1.4-0.8c0.9,0,1.5,0.6,1.5,1.5
		c0,0.9-0.6,1.5-1.5,1.5c-0.8,0-1.4-0.5-1.5-1.2h-1.6C157.5,344.5,158.8,345.7,160.6,345.7z M166,347.7l1.1-3.7h-1.7l-0.5,3.7H166z
		 M171.7,345.7c2.1,0,3.4-1.7,3.4-4.5c0-2.8-1.3-4.4-3.4-4.4c-2.1,0-3.4,1.6-3.4,4.4C168.4,344,169.6,345.7,171.7,345.7z
		 M171.7,344.2c-1,0-1.6-1-1.6-3c0-2,0.6-3,1.6-3c1,0,1.6,1,1.6,3C173.3,343.2,172.7,344.2,171.7,344.2z M179.8,345.7
		c2.2,0,3.5-1.7,3.5-4.5c0-2.7-1.4-4.4-3.5-4.4c-1.9,0-3.2,1.2-3.2,3c0,1.6,1.2,2.8,2.8,2.8c1,0,1.8-0.4,2.2-1.2h0.1
		c0,1.8-0.7,2.9-1.8,2.9c-0.7,0-1.2-0.4-1.4-0.9h-1.8C176.9,344.7,178.2,345.7,179.8,345.7z M179.8,341.2c-0.9,0-1.5-0.6-1.5-1.5
		c0-0.8,0.7-1.5,1.5-1.5c0.9,0,1.5,0.7,1.5,1.5C181.4,340.6,180.7,341.2,179.8,341.2z M188.2,345.7c2.1,0,3.4-1.7,3.4-4.5
		c0-2.8-1.3-4.4-3.4-4.4c-2.1,0-3.4,1.6-3.4,4.4C184.8,344,186.1,345.7,188.2,345.7z M188.2,344.2c-1,0-1.6-1-1.6-3c0-2,0.6-3,1.6-3
		c1,0,1.6,1,1.6,3C189.7,343.2,189.1,344.2,188.2,344.2z"/>
	<path class="st13" d="M146.8,319.5c0-0.3-0.1-0.5-0.3-0.6c-0.2-0.2-0.4-0.3-0.7-0.4c-0.3-0.1-0.6-0.3-0.9-0.4
		c-0.3-0.1-0.6-0.3-0.9-0.5c-0.3-0.2-0.5-0.5-0.7-0.8c-0.2-0.3-0.3-0.7-0.3-1.2c0-0.4,0.1-0.8,0.2-1.1c0.1-0.3,0.3-0.6,0.6-0.8
		c0.3-0.2,0.6-0.3,0.9-0.4c0.3-0.1,0.7-0.1,1.2-0.1c0.5,0,0.9,0,1.4,0.1c0.4,0.1,0.8,0.2,1.1,0.4l-0.5,1.4c-0.2-0.1-0.4-0.2-0.8-0.3
		c-0.4-0.1-0.7-0.1-1.1-0.1c-0.4,0-0.7,0.1-0.9,0.2c-0.2,0.2-0.3,0.4-0.3,0.6c0,0.2,0.1,0.4,0.3,0.6c0.2,0.2,0.4,0.3,0.7,0.4
		c0.3,0.1,0.6,0.3,0.9,0.4c0.3,0.1,0.6,0.3,0.9,0.5c0.3,0.2,0.5,0.5,0.7,0.8c0.2,0.3,0.3,0.7,0.3,1.1s-0.1,0.8-0.2,1.2
		c-0.1,0.3-0.4,0.6-0.6,0.8c-0.3,0.2-0.6,0.4-1,0.5c-0.4,0.1-0.8,0.2-1.2,0.2c-0.6,0-1.1-0.1-1.6-0.2c-0.5-0.1-0.8-0.2-1-0.3
		l0.5-1.4c0.1,0,0.2,0.1,0.3,0.2c0.1,0.1,0.3,0.1,0.5,0.2c0.2,0,0.4,0.1,0.6,0.1c0.2,0,0.4,0,0.6,0c0.5,0,0.9-0.1,1.1-0.2
		C146.7,320.1,146.8,319.8,146.8,319.5z M153.8,321.4c-0.2,0.2-0.5,0.3-0.9,0.4c-0.3,0.1-0.7,0.1-1,0.1c-0.5,0-0.9-0.1-1.2-0.2
		c-0.3-0.2-0.6-0.4-0.8-0.6c-0.2-0.3-0.4-0.6-0.5-1c-0.1-0.4-0.1-0.8-0.1-1.3c0-1,0.2-1.8,0.7-2.3c0.5-0.6,1.1-0.8,2-0.8
		c0.4,0,0.8,0,1.1,0.1c0.3,0.1,0.5,0.2,0.7,0.3l-0.4,1.3c-0.2-0.1-0.4-0.2-0.6-0.2c-0.2,0-0.4-0.1-0.6-0.1c-0.4,0-0.8,0.1-1,0.4
		c-0.2,0.3-0.3,0.7-0.3,1.4c0,0.3,0,0.5,0.1,0.7s0.1,0.4,0.3,0.6c0.1,0.2,0.3,0.3,0.4,0.4c0.2,0.1,0.4,0.1,0.6,0.1
		c0.3,0,0.5,0,0.7-0.1c0.2-0.1,0.3-0.2,0.5-0.3L153.8,321.4z M158.4,321.8v-3.4c0-0.5-0.1-0.8-0.2-1.1s-0.4-0.3-0.7-0.3
		c-0.3,0-0.5,0.1-0.7,0.3c-0.2,0.2-0.4,0.4-0.4,0.7v3.8h-1.6v-8.4h1.6v3.1h0c0.2-0.3,0.4-0.5,0.7-0.6c0.3-0.2,0.6-0.2,1.1-0.2
		c0.3,0,0.6,0,0.8,0.1c0.2,0.1,0.4,0.2,0.6,0.4c0.2,0.2,0.3,0.4,0.3,0.8c0.1,0.3,0.1,0.7,0.1,1.2v3.7H158.4z M161,318.8
		c0-1,0.2-1.8,0.7-2.3c0.5-0.6,1.2-0.8,2.1-0.8c0.5,0,0.9,0.1,1.2,0.2c0.4,0.2,0.6,0.4,0.9,0.6c0.2,0.3,0.4,0.6,0.5,1
		c0.1,0.4,0.2,0.8,0.2,1.3c0,1-0.2,1.8-0.7,2.4c-0.5,0.5-1.2,0.8-2.1,0.8c-0.5,0-0.9-0.1-1.2-0.2c-0.4-0.2-0.6-0.4-0.9-0.6
		c-0.2-0.3-0.4-0.6-0.5-1C161,319.7,161,319.2,161,318.8z M162.6,318.8c0,0.3,0,0.5,0.1,0.7s0.1,0.4,0.2,0.6s0.2,0.3,0.4,0.4
		c0.2,0.1,0.3,0.1,0.6,0.1c0.4,0,0.7-0.1,0.9-0.4c0.2-0.3,0.3-0.8,0.3-1.4c0-0.6-0.1-1-0.3-1.3c-0.2-0.3-0.5-0.5-0.9-0.5
		c-0.4,0-0.7,0.1-0.9,0.4C162.7,317.6,162.6,318.1,162.6,318.8z M167.4,318.8c0-1,0.2-1.8,0.7-2.3c0.5-0.6,1.2-0.8,2.1-0.8
		c0.5,0,0.9,0.1,1.2,0.2c0.4,0.2,0.6,0.4,0.9,0.6c0.2,0.3,0.4,0.6,0.5,1c0.1,0.4,0.2,0.8,0.2,1.3c0,1-0.2,1.8-0.7,2.4
		c-0.5,0.5-1.2,0.8-2.1,0.8c-0.5,0-0.9-0.1-1.2-0.2c-0.4-0.2-0.6-0.4-0.9-0.6c-0.2-0.3-0.4-0.6-0.5-1
		C167.5,319.7,167.4,319.2,167.4,318.8z M169,318.8c0,0.3,0,0.5,0.1,0.7c0,0.2,0.1,0.4,0.2,0.6c0.1,0.2,0.2,0.3,0.4,0.4
		c0.2,0.1,0.3,0.1,0.6,0.1c0.4,0,0.7-0.1,0.9-0.4c0.2-0.3,0.3-0.8,0.3-1.4c0-0.6-0.1-1-0.3-1.3c-0.2-0.3-0.5-0.5-0.9-0.5
		c-0.4,0-0.7,0.1-0.9,0.4C169.1,317.6,169,318.1,169,318.8z M175.7,319.8c0,0.3,0,0.5,0.1,0.6c0.1,0.1,0.2,0.2,0.3,0.2
		c0.1,0,0.2,0,0.3,0c0.1,0,0.2-0.1,0.3-0.1l0.2,1.2c-0.1,0.1-0.3,0.1-0.6,0.2c-0.3,0.1-0.5,0.1-0.8,0.1c-0.5,0-0.8-0.1-1-0.3
		c-0.2-0.2-0.4-0.6-0.4-1.1v-7.2h1.6V319.8z M180.1,315.8h0.8v-0.3c0-0.8,0.2-1.3,0.5-1.6c0.3-0.3,0.8-0.5,1.4-0.5
		c0.6,0,1.2,0.1,1.6,0.2l-0.3,1.2c-0.2-0.1-0.3-0.1-0.5-0.1c-0.1,0-0.3,0-0.4,0c-0.2,0-0.3,0-0.4,0.1c-0.1,0-0.2,0.1-0.2,0.2
		c0,0.1-0.1,0.2-0.1,0.4c0,0.1,0,0.3,0,0.5h1.3v1.3h-1.3v4.7H181v-4.7h-0.8V315.8z M189.3,321.3c-0.2,0.2-0.6,0.4-1,0.5
		c-0.4,0.1-0.8,0.2-1.3,0.2c-1,0-1.7-0.3-2.1-0.8c-0.4-0.6-0.7-1.3-0.7-2.3c0-1.1,0.3-1.8,0.8-2.4c0.5-0.5,1.2-0.8,2.1-0.8
		c0.3,0,0.6,0,0.9,0.1c0.3,0.1,0.5,0.2,0.8,0.4s0.4,0.4,0.5,0.7c0.1,0.3,0.2,0.7,0.2,1.2c0,0.2,0,0.3,0,0.5c0,0.2,0,0.4-0.1,0.6
		h-3.6c0,0.5,0.2,0.9,0.4,1.1c0.2,0.3,0.6,0.4,1.2,0.4c0.3,0,0.6,0,0.9-0.1c0.3-0.1,0.5-0.2,0.6-0.3L189.3,321.3z M187.1,316.8
		c-0.4,0-0.7,0.1-0.9,0.4c-0.2,0.2-0.3,0.6-0.3,1h2.2c0-0.4,0-0.8-0.2-1C187.7,317,187.4,316.8,187.1,316.8z M195.3,321.3
		c-0.2,0.2-0.6,0.4-1,0.5c-0.4,0.1-0.8,0.2-1.3,0.2c-1,0-1.7-0.3-2.1-0.8c-0.4-0.6-0.7-1.3-0.7-2.3c0-1.1,0.3-1.8,0.8-2.4
		c0.5-0.5,1.2-0.8,2.1-0.8c0.3,0,0.6,0,0.9,0.1c0.3,0.1,0.5,0.2,0.8,0.4s0.4,0.4,0.5,0.7c0.1,0.3,0.2,0.7,0.2,1.2c0,0.2,0,0.3,0,0.5
		c0,0.2,0,0.4-0.1,0.6h-3.6c0,0.5,0.2,0.9,0.4,1.1c0.2,0.3,0.6,0.4,1.2,0.4c0.3,0,0.6,0,0.9-0.1c0.3-0.1,0.5-0.2,0.6-0.3
		L195.3,321.3z M193.1,316.8c-0.4,0-0.7,0.1-0.9,0.4c-0.2,0.2-0.3,0.6-0.3,1h2.2c0-0.4,0-0.8-0.2-1
		C193.7,317,193.4,316.8,193.1,316.8z M199.1,320.1c0-0.2-0.1-0.3-0.2-0.4s-0.3-0.2-0.5-0.3c-0.2-0.1-0.4-0.2-0.7-0.2
		c-0.2-0.1-0.5-0.2-0.7-0.3c-0.2-0.2-0.4-0.3-0.5-0.6c-0.1-0.2-0.2-0.5-0.2-0.9c0-0.6,0.2-1,0.5-1.4c0.4-0.3,0.9-0.5,1.5-0.5
		c0.5,0,0.9,0,1.2,0.1c0.4,0.1,0.7,0.2,0.9,0.3l-0.3,1.1c-0.2-0.1-0.4-0.1-0.7-0.2c-0.3-0.1-0.6-0.1-0.9-0.1c-0.5,0-0.7,0.2-0.7,0.5
		c0,0.1,0.1,0.3,0.2,0.3s0.3,0.2,0.5,0.3c0.2,0.1,0.4,0.2,0.7,0.2c0.2,0.1,0.5,0.2,0.7,0.3c0.2,0.1,0.4,0.3,0.5,0.5
		c0.1,0.2,0.2,0.5,0.2,0.9c0,0.6-0.2,1.1-0.6,1.4c-0.4,0.3-1,0.5-1.7,0.5c-0.4,0-0.8-0.1-1.2-0.2c-0.4-0.1-0.7-0.2-0.9-0.4l0.4-1.2
		c0.2,0.1,0.4,0.2,0.7,0.3c0.3,0.1,0.6,0.1,0.9,0.1c0.2,0,0.4,0,0.6-0.1C199,320.5,199.1,320.3,199.1,320.1z M207.2,320.1
		c0-0.2-0.1-0.3-0.2-0.4s-0.3-0.2-0.5-0.3c-0.2-0.1-0.4-0.2-0.7-0.2c-0.2-0.1-0.5-0.2-0.7-0.3c-0.2-0.2-0.4-0.3-0.5-0.6
		c-0.1-0.2-0.2-0.5-0.2-0.9c0-0.6,0.2-1,0.5-1.4c0.4-0.3,0.9-0.5,1.5-0.5c0.5,0,0.9,0,1.2,0.1s0.7,0.2,0.9,0.3l-0.3,1.1
		c-0.2-0.1-0.4-0.1-0.7-0.2c-0.3-0.1-0.6-0.1-0.9-0.1c-0.5,0-0.7,0.2-0.7,0.5c0,0.1,0.1,0.3,0.2,0.3s0.3,0.2,0.5,0.3
		c0.2,0.1,0.4,0.2,0.7,0.2c0.2,0.1,0.5,0.2,0.7,0.3c0.2,0.1,0.4,0.3,0.5,0.5s0.2,0.5,0.2,0.9c0,0.6-0.2,1.1-0.6,1.4
		c-0.4,0.3-1,0.5-1.7,0.5c-0.4,0-0.8-0.1-1.2-0.2c-0.4-0.1-0.7-0.2-0.9-0.4l0.4-1.2c0.2,0.1,0.4,0.2,0.7,0.3
		c0.3,0.1,0.6,0.1,0.9,0.1c0.2,0,0.4,0,0.6-0.1C207.1,320.5,207.2,320.3,207.2,320.1z M209.7,316.1c0.3-0.1,0.7-0.3,1.1-0.3
		c0.4-0.1,0.9-0.1,1.4-0.1c0.4,0,0.8,0.1,1,0.2c0.3,0.1,0.5,0.2,0.7,0.4c0.2,0.2,0.3,0.4,0.3,0.7c0.1,0.3,0.1,0.5,0.1,0.9
		c0,0.4,0,0.7,0,1.1c0,0.4,0,0.7,0,1c0,0.3,0,0.7,0,1c0,0.3,0.1,0.6,0.2,0.9h-1.3L213,321H213c-0.2,0.2-0.4,0.5-0.7,0.6
		c-0.3,0.2-0.6,0.3-1.1,0.3c-0.3,0-0.5,0-0.8-0.1c-0.2-0.1-0.4-0.2-0.6-0.4c-0.2-0.2-0.3-0.3-0.4-0.6c-0.1-0.2-0.1-0.5-0.1-0.7
		c0-0.4,0.1-0.7,0.2-0.9c0.2-0.3,0.4-0.5,0.7-0.6c0.3-0.2,0.7-0.3,1.1-0.3c0.4-0.1,0.9-0.1,1.4-0.1c0.1-0.4,0-0.8-0.1-1
		c-0.1-0.2-0.4-0.3-0.8-0.3c-0.3,0-0.6,0-1,0.1c-0.3,0.1-0.6,0.1-0.9,0.3L209.7,316.1z M211.7,320.6c0.3,0,0.6-0.1,0.7-0.2
		c0.2-0.1,0.3-0.3,0.4-0.5v-0.8c-0.2,0-0.5,0-0.7,0c-0.2,0-0.4,0.1-0.6,0.1s-0.3,0.1-0.4,0.2s-0.2,0.2-0.2,0.4
		c0,0.2,0.1,0.4,0.2,0.5C211.3,320.5,211.5,320.6,211.7,320.6z M217.8,318.9l0.2,0.9h0.1l0.2-0.9l1-3.1h1.7l-2.5,6.1h-0.9l-2.6-6.1
		h1.8L217.8,318.9z M221.6,315.8h1.6v6h-1.6V315.8z M221.4,314.1c0-0.2,0.1-0.4,0.3-0.6c0.2-0.2,0.4-0.3,0.7-0.3s0.5,0.1,0.7,0.3
		c0.2,0.2,0.3,0.4,0.3,0.6s-0.1,0.4-0.3,0.6c-0.2,0.2-0.4,0.2-0.7,0.2s-0.5-0.1-0.7-0.2C221.4,314.5,221.4,314.3,221.4,314.1z
		 M228.3,321.8v-3.4c0-0.5-0.1-0.8-0.2-1.1c-0.1-0.2-0.4-0.3-0.7-0.3c-0.3,0-0.5,0.1-0.8,0.3c-0.2,0.2-0.3,0.4-0.4,0.6v3.9h-1.6v-6
		h1.2l0.2,0.8h0c0.2-0.3,0.4-0.5,0.7-0.7c0.3-0.2,0.7-0.3,1.2-0.3c0.3,0,0.6,0,0.8,0.1c0.2,0.1,0.4,0.2,0.6,0.4s0.3,0.4,0.4,0.8
		c0.1,0.3,0.1,0.7,0.1,1.2v3.7H228.3z M236.3,321.8c0,0.9-0.2,1.5-0.7,1.9c-0.5,0.4-1.1,0.6-2,0.6c-0.6,0-1,0-1.4-0.1
		c-0.3-0.1-0.6-0.2-0.7-0.3l0.3-1.2c0.2,0.1,0.4,0.1,0.6,0.2c0.2,0.1,0.6,0.1,0.9,0.1c0.5,0,0.9-0.1,1.1-0.4c0.2-0.2,0.3-0.6,0.3-1
		v-0.4h0c-0.3,0.4-0.8,0.6-1.5,0.6c-0.8,0-1.4-0.2-1.7-0.7c-0.4-0.5-0.6-1.2-0.6-2.3c0-1.1,0.3-1.9,0.8-2.4c0.5-0.6,1.3-0.8,2.2-0.8
		c0.5,0,1,0,1.4,0.1c0.4,0.1,0.7,0.2,1,0.3V321.8z M233.6,320.6c0.3,0,0.5-0.1,0.7-0.2c0.2-0.1,0.3-0.3,0.4-0.6v-2.7
		c-0.2-0.1-0.6-0.2-0.9-0.2c-0.4,0-0.7,0.2-0.9,0.5c-0.2,0.3-0.3,0.8-0.3,1.4c0,0.6,0.1,1,0.3,1.3
		C233,320.5,233.3,320.6,233.6,320.6z M240.1,320.1c0-0.2-0.1-0.3-0.2-0.4s-0.3-0.2-0.5-0.3c-0.2-0.1-0.4-0.2-0.7-0.2
		c-0.2-0.1-0.5-0.2-0.7-0.3c-0.2-0.2-0.4-0.3-0.5-0.6c-0.1-0.2-0.2-0.5-0.2-0.9c0-0.6,0.2-1,0.5-1.4c0.4-0.3,0.9-0.5,1.5-0.5
		c0.5,0,0.9,0,1.2,0.1c0.4,0.1,0.7,0.2,0.9,0.3l-0.3,1.1c-0.2-0.1-0.4-0.1-0.7-0.2c-0.3-0.1-0.6-0.1-0.9-0.1c-0.5,0-0.7,0.2-0.7,0.5
		c0,0.1,0.1,0.3,0.2,0.3s0.3,0.2,0.5,0.3c0.2,0.1,0.4,0.2,0.7,0.2c0.2,0.1,0.5,0.2,0.7,0.3c0.2,0.1,0.4,0.3,0.5,0.5
		c0.1,0.2,0.2,0.5,0.2,0.9c0,0.6-0.2,1.1-0.6,1.4c-0.4,0.3-1,0.5-1.7,0.5c-0.4,0-0.8-0.1-1.2-0.2c-0.4-0.1-0.7-0.2-0.9-0.4l0.4-1.2
		c0.2,0.1,0.4,0.2,0.7,0.3c0.3,0.1,0.6,0.1,0.9,0.1c0.2,0,0.4,0,0.6-0.1C240.1,320.5,240.1,320.3,240.1,320.1z"/>
	<line class="st15" x1="423.5" y1="377.8" x2="423.5" y2="291"/>
</g>
<g id="Second">
	<g>
		<path class="st4" d="M122,387.2h377.6c1.7,0,3,1.3,3,3V471c0,1.7-1.3,3-3,3H122c-1.7,0-3-1.3-3-3v-80.8
			C119,388.5,120.3,387.2,122,387.2z"/>
	</g>
	<path class="st12" d="M450.4,419.1c0-0.5,0.1-1,0.2-1.5c0.2-0.5,0.4-0.8,0.7-1.2c0.3-0.3,0.7-0.6,1.2-0.8c0.5-0.2,1-0.3,1.6-0.3
		c1.2,0,2.1,0.4,2.8,1.1c0.7,0.7,1,1.8,1,3.1c0,1.2-0.2,2.3-0.5,3.2c-0.3,0.9-0.7,1.6-1.3,2.3c-0.5,0.6-1.1,1.1-1.8,1.4
		c-0.7,0.3-1.4,0.5-2.2,0.6l-0.4-1.6c0.6-0.1,1.1-0.2,1.6-0.4c0.5-0.2,0.9-0.5,1.2-0.8c0.3-0.3,0.6-0.7,0.8-1.1
		c0.2-0.4,0.4-0.8,0.4-1.3c-0.3,0.3-0.5,0.5-0.8,0.6c-0.3,0.1-0.7,0.2-1.2,0.2c-0.4,0-0.8-0.1-1.2-0.2c-0.4-0.1-0.8-0.3-1.1-0.6
		c-0.3-0.3-0.6-0.6-0.8-1.1C450.5,420.2,450.4,419.7,450.4,419.1z M452.4,419c0,0.6,0.2,1.1,0.5,1.4c0.3,0.3,0.8,0.5,1.3,0.5
		c0.4,0,0.8-0.1,1.1-0.2s0.5-0.3,0.6-0.5c0-0.2,0-0.4,0-0.6c0-0.3,0-0.6-0.1-0.9c-0.1-0.3-0.2-0.5-0.4-0.8c-0.1-0.2-0.3-0.4-0.6-0.5
		c-0.2-0.1-0.5-0.2-0.8-0.2c-0.5,0-0.9,0.2-1.2,0.5C452.6,418,452.4,418.4,452.4,419z M459.6,418.2c0-0.5,0.1-0.9,0.2-1.2
		c0.1-0.3,0.3-0.6,0.6-0.8s0.5-0.4,0.9-0.5c0.4-0.1,0.7-0.2,1.1-0.2s0.8,0,1.1,0.1c0.3,0.1,0.6,0.3,0.9,0.5c0.3,0.2,0.5,0.5,0.6,0.8
		c0.1,0.3,0.2,0.8,0.2,1.3c0,0.5-0.1,0.9-0.2,1.3c-0.1,0.3-0.3,0.6-0.6,0.8c-0.2,0.2-0.5,0.4-0.9,0.5c-0.3,0.1-0.7,0.1-1.1,0.1
		s-0.8,0-1.1-0.1c-0.3-0.1-0.6-0.3-0.9-0.5s-0.4-0.5-0.6-0.8C459.7,419.1,459.6,418.7,459.6,418.2z M461.4,418.2
		c0,0.9,0.3,1.4,0.9,1.4c0.3,0,0.6-0.1,0.7-0.3c0.1-0.2,0.2-0.6,0.2-1.1c0-0.5-0.1-0.9-0.2-1.1c-0.1-0.2-0.4-0.3-0.7-0.3
		s-0.6,0.1-0.7,0.3S461.4,417.6,461.4,418.2z M466.1,424.1c0-0.5,0.1-0.9,0.2-1.2c0.1-0.3,0.3-0.6,0.6-0.8c0.2-0.2,0.5-0.4,0.9-0.5
		c0.4-0.1,0.7-0.2,1.1-0.2s0.8,0,1.1,0.1c0.3,0.1,0.6,0.3,0.9,0.5c0.3,0.2,0.5,0.5,0.6,0.8c0.1,0.3,0.2,0.8,0.2,1.3
		c0,0.5-0.1,0.9-0.2,1.3c-0.1,0.3-0.3,0.6-0.6,0.8c-0.2,0.2-0.5,0.4-0.9,0.5s-0.7,0.1-1.1,0.1s-0.8,0-1.1-0.1
		c-0.3-0.1-0.6-0.3-0.9-0.5c-0.2-0.2-0.4-0.5-0.6-0.8C466.2,425,466.1,424.6,466.1,424.1z M467.9,424.1c0,0.9,0.3,1.4,0.9,1.4
		c0.3,0,0.6-0.1,0.7-0.3c0.1-0.2,0.2-0.6,0.2-1.1c0-0.5-0.1-0.9-0.2-1.1c-0.1-0.2-0.4-0.3-0.7-0.3s-0.6,0.1-0.7,0.3
		S467.9,423.6,467.9,424.1z M469.6,415.4l1.2,1.1l-9.2,10.6l-1.2-1.1L469.6,415.4z"/>
	<path class="st13" d="M455.6,438.1c0.2-0.1,0.5-0.1,0.7-0.1s0.5,0,0.8,0c0.3,0,0.6,0,0.8,0.1c0.3,0.1,0.5,0.2,0.8,0.3
		c0.2,0.1,0.4,0.3,0.6,0.6c0.1,0.3,0.2,0.6,0.2,1c0,0.4-0.1,0.7-0.2,1s-0.3,0.5-0.5,0.6c-0.2,0.2-0.5,0.3-0.8,0.4s-0.6,0.1-0.9,0.1
		c0,0-0.1,0-0.2,0c-0.1,0-0.1,0-0.2,0c-0.1,0-0.1,0-0.2,0c-0.1,0-0.1,0-0.2,0v2.4h-0.7V438.1z M457.1,438.6c-0.2,0-0.3,0-0.4,0
		c-0.1,0-0.3,0-0.3,0v2.6c0,0,0.1,0,0.1,0c0.1,0,0.1,0,0.2,0c0.1,0,0.1,0,0.2,0c0.1,0,0.1,0,0.1,0c0.2,0,0.4,0,0.6-0.1
		c0.2,0,0.4-0.1,0.5-0.2s0.3-0.2,0.4-0.4c0.1-0.2,0.2-0.4,0.2-0.7c0-0.2,0-0.4-0.1-0.6c-0.1-0.2-0.2-0.3-0.4-0.4
		c-0.1-0.1-0.3-0.2-0.5-0.2C457.5,438.6,457.3,438.6,457.1,438.6z M459.1,443.9c0-0.2,0-0.3,0.1-0.4c0.1-0.1,0.2-0.1,0.4-0.1
		c0.2,0,0.3,0,0.4,0.1c0.1,0.1,0.1,0.2,0.1,0.4c0,0.2,0,0.3-0.1,0.4c-0.1,0.1-0.2,0.1-0.4,0.1c-0.2,0-0.3,0-0.4-0.1
		C459.2,444.2,459.1,444,459.1,443.9z M464.4,442.5h-2.3l-0.6,1.7h-0.7l2.4-6.4h0.3l2.4,6.4H465L464.4,442.5z M462.3,441.9h1.9
		l-0.7-1.9l-0.2-1h0l-0.2,1L462.3,441.9z"/>
	<path class="st14" d="M145.8,439.1L145.8,439.1l-0.6-1.1h0.6V439.1z M142.9,437.3v-1.1h0l0.5,1.1H142.9z M148.2,437.3h-0.9v-3.8
		h-1.5v3.8h-0.9l-1.7-3.8h-1.9v3.8h-0.8v0.7h0.8v3.8h1.5V438h0.9l1.7,3.8h1.9V438h0.9V437.3z M151.4,438.2h1.1
		c0.9,0,1.5,0.5,1.5,1.2c0,0.7-0.6,1.2-1.5,1.2c-0.9,0-1.5-0.5-1.6-1.2h-1.7c0.1,1.6,1.4,2.6,3.3,2.6c1.9,0,3.3-1,3.3-2.5
		c0-1.1-0.7-1.9-1.9-2v-0.1c0.9-0.2,1.6-0.9,1.6-1.9c0-1.2-1-2.3-2.9-2.3c-1.9,0-3.1,1-3.2,2.6h1.6c0.1-0.8,0.6-1.2,1.4-1.2
		c0.8,0,1.3,0.5,1.3,1.1c0,0.7-0.5,1.2-1.3,1.2h-1.1V438.2z M158,444.2l1.1-3.7h-1.7l-0.5,3.7H158z M163.8,442.1
		c2.1,0,3.4-1.7,3.4-4.5c0-2.8-1.3-4.4-3.4-4.4c-2.1,0-3.4,1.6-3.4,4.4C160.4,440.4,161.7,442.1,163.8,442.1z M163.8,440.6
		c-1,0-1.6-1-1.6-3c0-2,0.6-3,1.6-3c1,0,1.6,1,1.6,3C165.3,439.6,164.7,440.6,163.8,440.6z M171.8,442.1c2.2,0,3.5-1.7,3.5-4.5
		c0-2.7-1.4-4.4-3.5-4.4c-1.9,0-3.2,1.2-3.2,3c0,1.6,1.2,2.8,2.8,2.8c1,0,1.8-0.4,2.2-1.2h0.1c0,1.8-0.7,2.9-1.8,2.9
		c-0.7,0-1.2-0.4-1.4-0.9h-1.8C169,441.1,170.2,442.1,171.8,442.1z M171.9,437.6c-0.9,0-1.5-0.6-1.5-1.5c0-0.8,0.6-1.5,1.5-1.5
		c0.9,0,1.5,0.7,1.5,1.5C173.4,437,172.8,437.6,171.9,437.6z M180.2,442.1c2.1,0,3.4-1.7,3.4-4.5c0-2.8-1.3-4.4-3.4-4.4
		c-2.1,0-3.4,1.6-3.4,4.4C176.8,440.4,178.1,442.1,180.2,442.1z M180.2,440.6c-1,0-1.6-1-1.6-3c0-2,0.6-3,1.6-3c1,0,1.6,1,1.6,3
		C181.8,439.6,181.2,440.6,180.2,440.6z M185.6,444.2l1.1-3.7H185l-0.5,3.7H185.6z M191.3,442.1c2.2,0,3.5-1.7,3.5-4.5
		c0-2.7-1.4-4.4-3.5-4.4c-1.9,0-3.2,1.2-3.2,3c0,1.6,1.2,2.8,2.8,2.8c1,0,1.8-0.4,2.2-1.2h0.1c0,1.8-0.7,2.9-1.8,2.9
		c-0.7,0-1.2-0.4-1.4-0.9h-1.8C188.4,441.1,189.7,442.1,191.3,442.1z M191.3,437.6c-0.9,0-1.5-0.6-1.5-1.5c0-0.8,0.7-1.5,1.5-1.5
		c0.9,0,1.5,0.7,1.5,1.5C192.9,437,192.2,437.6,191.3,437.6z M199.7,442.1c2.1,0,3.4-1.7,3.4-4.5c0-2.8-1.3-4.4-3.4-4.4
		c-2.1,0-3.4,1.6-3.4,4.4C196.3,440.4,197.6,442.1,199.7,442.1z M199.7,440.6c-1,0-1.6-1-1.6-3c0-2,0.6-3,1.6-3c1,0,1.6,1,1.6,3
		C201.2,439.6,200.6,440.6,199.7,440.6z M207.9,442.1c2.1,0,3.4-1.7,3.4-4.5c0-2.8-1.3-4.4-3.4-4.4c-2.1,0-3.4,1.6-3.4,4.4
		C204.5,440.4,205.8,442.1,207.9,442.1z M207.9,440.6c-1,0-1.6-1-1.6-3c0-2,0.6-3,1.6-3c1,0,1.6,1,1.6,3
		C209.5,439.6,208.9,440.6,207.9,440.6z"/>
	<path class="st13" d="M142.9,413.2c0-1.4,0.3-2.5,0.9-3.2c0.6-0.8,1.5-1.1,2.6-1.1c0.6,0,1.1,0.1,1.6,0.3c0.4,0.2,0.8,0.5,1.1,0.9
		s0.5,0.8,0.7,1.4c0.1,0.5,0.2,1.1,0.2,1.8c0,1.4-0.3,2.5-0.9,3.2c-0.6,0.8-1.5,1.1-2.6,1.1c-0.6,0-1.1-0.1-1.6-0.3
		c-0.4-0.2-0.8-0.5-1.1-0.9c-0.3-0.4-0.5-0.8-0.6-1.4C143,414.5,142.9,413.9,142.9,413.2z M144.6,413.2c0,0.4,0,0.8,0.1,1.2
		c0.1,0.4,0.2,0.7,0.3,0.9c0.2,0.3,0.3,0.5,0.6,0.6c0.2,0.1,0.5,0.2,0.8,0.2c0.6,0,1-0.2,1.4-0.7c0.3-0.5,0.5-1.2,0.5-2.2
		c0-0.4,0-0.8-0.1-1.1c-0.1-0.4-0.2-0.7-0.3-0.9c-0.1-0.3-0.3-0.5-0.6-0.6c-0.2-0.2-0.5-0.2-0.9-0.2c-0.6,0-1,0.2-1.4,0.7
		C144.8,411.5,144.6,412.2,144.6,413.2z M152.2,414.4l-1.8-2.9h1.9l0.8,1.3l0.3,0.8l0.4-0.8l0.8-1.3h1.7l-1.8,2.9l1.9,3.1h-1.8
		l-0.9-1.4l-0.4-0.9l-0.4,0.9l-0.9,1.4h-1.7L152.2,414.4z M156.6,411.4h0.8v-0.3c0-0.8,0.2-1.3,0.5-1.6c0.3-0.3,0.8-0.5,1.4-0.5
		c0.6,0,1.2,0.1,1.6,0.2l-0.3,1.2c-0.2-0.1-0.3-0.1-0.5-0.1c-0.1,0-0.3,0-0.4,0c-0.2,0-0.3,0-0.4,0.1c-0.1,0-0.2,0.1-0.2,0.2
		c0,0.1-0.1,0.2-0.1,0.4c0,0.1,0,0.3,0,0.5h1.3v1.3H159v4.7h-1.6v-4.7h-0.8V411.4z M160.6,414.4c0-1,0.2-1.8,0.7-2.3
		c0.5-0.6,1.2-0.8,2.1-0.8c0.5,0,0.9,0.1,1.2,0.2c0.4,0.2,0.6,0.4,0.9,0.6c0.2,0.3,0.4,0.6,0.5,1c0.1,0.4,0.2,0.8,0.2,1.3
		c0,1-0.2,1.8-0.7,2.4c-0.5,0.5-1.2,0.8-2.1,0.8c-0.5,0-0.9-0.1-1.2-0.2c-0.4-0.2-0.6-0.4-0.9-0.6c-0.2-0.3-0.4-0.6-0.5-1
		C160.7,415.3,160.6,414.9,160.6,414.4z M162.2,414.4c0,0.3,0,0.5,0.1,0.7s0.1,0.4,0.2,0.6c0.1,0.2,0.2,0.3,0.4,0.4
		c0.2,0.1,0.3,0.1,0.6,0.1c0.4,0,0.7-0.1,0.9-0.4c0.2-0.3,0.3-0.8,0.3-1.4c0-0.6-0.1-1-0.3-1.3c-0.2-0.3-0.5-0.5-0.9-0.5
		c-0.4,0-0.7,0.1-0.9,0.4S162.2,413.8,162.2,414.4z M170.7,412.9c-0.2-0.1-0.5-0.1-0.7-0.1c-0.3,0-0.5,0.1-0.7,0.2
		c-0.2,0.1-0.3,0.3-0.4,0.6v3.9h-1.6v-6h1.2l0.2,0.8h0c0.1-0.3,0.3-0.5,0.6-0.7s0.5-0.2,0.8-0.2c0.2,0,0.4,0,0.7,0.1L170.7,412.9z
		 M176.7,415.3c0,0.3,0,0.7,0,1c0,0.3,0,0.7,0.1,1.1h-1.1l-0.2-0.8h0c-0.2,0.3-0.4,0.5-0.7,0.7c-0.3,0.2-0.6,0.3-1.1,0.3
		c-0.8,0-1.3-0.2-1.8-0.7s-0.6-1.3-0.6-2.3c0-1,0.2-1.8,0.7-2.4s1.1-0.9,2-0.9c0.2,0,0.5,0,0.6,0c0.2,0,0.3,0.1,0.5,0.1V409h1.6
		V415.3z M174,416.3c0.3,0,0.5-0.1,0.7-0.2c0.2-0.2,0.3-0.4,0.4-0.6v-2.5c-0.1-0.1-0.2-0.2-0.4-0.2c-0.1,0-0.3-0.1-0.5-0.1
		c-0.4,0-0.8,0.1-1,0.4c-0.2,0.3-0.3,0.8-0.3,1.5c0,0.5,0.1,0.9,0.3,1.2C173.3,416.1,173.6,416.3,174,416.3z M187.6,413.1l0.2-1.7
		h-0.1l-0.5,1.3l-1.8,3.1h-0.5l-1.9-3.1l-0.5-1.3h-0.1l0.2,1.7v4.4h-1.6V409h1.5l2.2,3.8l0.4,1h0l0.4-1l2.1-3.8h1.5v8.4h-1.6V413.1z
		 M190.6,411.8c0.3-0.1,0.7-0.3,1.1-0.3c0.4-0.1,0.9-0.1,1.4-0.1c0.4,0,0.8,0.1,1,0.2c0.3,0.1,0.5,0.2,0.7,0.4
		c0.2,0.2,0.3,0.4,0.3,0.7c0.1,0.3,0.1,0.5,0.1,0.9c0,0.4,0,0.7,0,1.1c0,0.4,0,0.7,0,1c0,0.3,0,0.7,0,1c0,0.3,0.1,0.6,0.2,0.9h-1.3
		l-0.3-0.8h-0.1c-0.2,0.2-0.4,0.5-0.7,0.6c-0.3,0.2-0.6,0.3-1.1,0.3c-0.3,0-0.5,0-0.8-0.1c-0.2-0.1-0.4-0.2-0.6-0.4
		c-0.2-0.2-0.3-0.3-0.4-0.6c-0.1-0.2-0.1-0.5-0.1-0.7c0-0.4,0.1-0.7,0.2-0.9c0.2-0.3,0.4-0.5,0.7-0.6c0.3-0.2,0.7-0.3,1.1-0.3
		c0.4-0.1,0.9-0.1,1.4-0.1c0.1-0.4,0-0.8-0.1-1c-0.1-0.2-0.4-0.3-0.8-0.3c-0.3,0-0.6,0-1,0.1c-0.3,0.1-0.6,0.1-0.9,0.3L190.6,411.8z
		 M192.6,416.3c0.3,0,0.6-0.1,0.7-0.2c0.2-0.1,0.3-0.3,0.4-0.5v-0.8c-0.2,0-0.5,0-0.7,0c-0.2,0-0.4,0.1-0.6,0.1
		c-0.2,0.1-0.3,0.1-0.4,0.2c-0.1,0.1-0.2,0.2-0.2,0.4c0,0.2,0.1,0.4,0.2,0.5C192.2,416.2,192.4,416.3,192.6,416.3z M199.1,415.8
		c0-0.2-0.1-0.3-0.2-0.4c-0.1-0.1-0.3-0.2-0.5-0.3c-0.2-0.1-0.4-0.2-0.7-0.2c-0.2-0.1-0.5-0.2-0.7-0.3c-0.2-0.2-0.4-0.3-0.5-0.6
		c-0.1-0.2-0.2-0.5-0.2-0.9c0-0.6,0.2-1,0.5-1.4c0.4-0.3,0.9-0.5,1.5-0.5c0.5,0,0.9,0,1.2,0.1s0.7,0.2,0.9,0.3l-0.3,1.1
		c-0.2-0.1-0.4-0.1-0.7-0.2c-0.3-0.1-0.6-0.1-0.9-0.1c-0.5,0-0.7,0.2-0.7,0.5c0,0.1,0.1,0.3,0.2,0.3c0.1,0.1,0.3,0.2,0.5,0.3
		c0.2,0.1,0.4,0.2,0.7,0.2c0.2,0.1,0.5,0.2,0.7,0.3c0.2,0.1,0.4,0.3,0.5,0.5c0.1,0.2,0.2,0.5,0.2,0.9c0,0.6-0.2,1.1-0.6,1.4
		c-0.4,0.3-1,0.5-1.7,0.5c-0.4,0-0.8-0.1-1.2-0.2c-0.4-0.1-0.7-0.2-0.9-0.4l0.4-1.2c0.2,0.1,0.4,0.2,0.7,0.3
		c0.3,0.1,0.6,0.1,0.9,0.1c0.2,0,0.4,0,0.6-0.1C199,416.1,199.1,416,199.1,415.8z M201.1,411.4h0.8v-1.1l1.6-0.4v1.6h1.5v1.3h-1.5
		v2.3c0,0.4,0,0.7,0.1,0.9c0.1,0.2,0.2,0.3,0.5,0.3c0.2,0,0.3,0,0.4,0c0.1,0,0.3-0.1,0.4-0.1l0.3,1.2c-0.2,0.1-0.5,0.2-0.8,0.3
		c-0.3,0.1-0.6,0.1-0.9,0.1c-0.6,0-1-0.1-1.2-0.4c-0.3-0.3-0.4-0.8-0.4-1.4v-3h-0.8V411.4z M210.6,416.9c-0.2,0.2-0.6,0.4-1,0.5
		c-0.4,0.1-0.8,0.2-1.3,0.2c-1,0-1.7-0.3-2.1-0.8c-0.4-0.6-0.7-1.3-0.7-2.3c0-1.1,0.3-1.8,0.8-2.4c0.5-0.5,1.2-0.8,2.1-0.8
		c0.3,0,0.6,0,0.9,0.1c0.3,0.1,0.5,0.2,0.8,0.4c0.2,0.2,0.4,0.4,0.5,0.7c0.1,0.3,0.2,0.7,0.2,1.2c0,0.2,0,0.3,0,0.5
		c0,0.2,0,0.4-0.1,0.6h-3.6c0,0.5,0.2,0.9,0.4,1.1c0.2,0.3,0.6,0.4,1.2,0.4c0.3,0,0.6,0,0.9-0.1c0.3-0.1,0.5-0.2,0.6-0.3
		L210.6,416.9z M208.4,412.5c-0.4,0-0.7,0.1-0.9,0.4c-0.2,0.2-0.3,0.6-0.3,1h2.2c0-0.4,0-0.8-0.2-1
		C209,412.6,208.7,412.5,208.4,412.5z M215.2,412.9c-0.2-0.1-0.5-0.1-0.7-0.1c-0.3,0-0.5,0.1-0.7,0.2c-0.2,0.1-0.3,0.3-0.4,0.6v3.9
		h-1.6v-6h1.2l0.2,0.8h0c0.1-0.3,0.3-0.5,0.6-0.7s0.5-0.2,0.8-0.2c0.2,0,0.4,0,0.7,0.1L215.2,412.9z M218.6,415.8
		c0-0.2-0.1-0.3-0.2-0.4c-0.1-0.1-0.3-0.2-0.5-0.3c-0.2-0.1-0.4-0.2-0.7-0.2c-0.2-0.1-0.5-0.2-0.7-0.3c-0.2-0.2-0.4-0.3-0.5-0.6
		c-0.1-0.2-0.2-0.5-0.2-0.9c0-0.6,0.2-1,0.5-1.4c0.4-0.3,0.9-0.5,1.5-0.5c0.5,0,0.9,0,1.2,0.1c0.4,0.1,0.7,0.2,0.9,0.3l-0.3,1.1
		c-0.2-0.1-0.4-0.1-0.7-0.2c-0.3-0.1-0.6-0.1-0.9-0.1c-0.5,0-0.7,0.2-0.7,0.5c0,0.1,0.1,0.3,0.2,0.3c0.1,0.1,0.3,0.2,0.5,0.3
		c0.2,0.1,0.4,0.2,0.7,0.2c0.2,0.1,0.5,0.2,0.7,0.3c0.2,0.1,0.4,0.3,0.5,0.5c0.1,0.2,0.2,0.5,0.2,0.9c0,0.6-0.2,1.1-0.6,1.4
		c-0.4,0.3-1,0.5-1.7,0.5c-0.4,0-0.8-0.1-1.2-0.2c-0.4-0.1-0.7-0.2-0.9-0.4l0.4-1.2c0.2,0.1,0.4,0.2,0.7,0.3
		c0.3,0.1,0.6,0.1,0.9,0.1c0.2,0,0.4,0,0.6-0.1C218.5,416.1,218.6,416,218.6,415.8z"/>
	<line class="st15" x1="423.5" y1="474" x2="423.5" y2="387.2"/>
</g>
</svg>
